<?xml version="1.0" standalone="no"?>
<!DOCTYPE svg PUBLIC "-//W3C//DTD SVG 20010904//EN"
 "http://www.w3.org/TR/2001/REC-SVG-20010904/DTD/svg10.dtd">
<svg version="1.0" xmlns="http://www.w3.org/2000/svg"
 width="309.000000pt" height="309.000000pt" viewBox="0 0 309.000000 309.000000"
 preserveAspectRatio="xMidYMid meet">
<metadata>
Created by potrace 1.14, written by Peter Selinger 2001-2017
</metadata>
<g transform="translate(0.000000,309.000000) scale(0.100000,-0.100000)"
fill="#000000" stroke="none">
<path d="M1369 3085 c-2 -1 -33 -6 -69 -10 -36 -4 -68 -9 -71 -11 -4 -2 -24
-6 -45 -10 -106 -16 -346 -115 -467 -191 -184 -115 -358 -287 -469 -463 -46
-73 -99 -170 -92 -170 3 0 -4 -13 -15 -29 -12 -16 -21 -38 -21 -48 0 -10 -4
-23 -8 -28 -10 -11 -59 -164 -67 -210 -41 -217 -42 -461 -2 -640 32 -140 122
-376 164 -426 7 -8 13 -19 13 -22 0 -4 21 -38 48 -75 157 -229 341 -388 582
-507 86 -43 243 -100 304 -111 16 -3 33 -7 37 -9 4 -3 24 -7 45 -11 231 -34
435 -29 619 17 446 111 798 392 1000 798 25 50 45 95 45 101 0 6 4 18 10 28
22 41 67 203 85 312 4 19 8 107 10 195 3 125 -1 184 -16 270 -103 590 -523
1051 -1099 1205 -25 7 -54 14 -65 16 -11 2 -45 9 -75 15 -51 10 -373 22 -381
14z"/>
</g>
</svg>
